<svg width="44" height="45" viewBox="0 0 44 45" fill="none" xmlns="http://www.w3.org/2000/svg">
<path d="M8.24999 42.9286C4.56152 42.9286 1.57142 39.9385 1.57143 36.25L1.57145 8.75C1.57145 5.06153 4.56155 2.07143 8.25002 2.07143H35.75C39.4385 2.07143 42.4286 5.06153 42.4286 8.75V36.25C42.4286 39.9385 39.4385 42.9286 35.75 42.9286H8.24999Z" stroke="#F3F3F3" stroke-width="3.14286"/>
<path d="M30.8666 35.6999C31.8802 35.6999 32.8165 35.1584 33.322 34.2798V34.2798C33.8719 33.3239 33.8112 32.1351 33.001 31.3869C31.2651 29.7837 27.634 27.2971 21.8105 27.2971C15.9998 27.2971 12.5464 29.7729 10.9191 31.3764C10.1476 32.1366 10.1176 33.3004 10.6578 34.2393V34.2393" stroke="#F3F3F3" stroke-width="3.14286" stroke-linecap="round" stroke-linejoin="round"/>
<path d="M22.0015 20.7617C25.3766 20.7617 28.1126 18.0864 28.1126 14.7863C28.1126 11.4863 25.3766 8.81104 22.0015 8.81104C18.6264 8.81104 15.8904 11.4863 15.8904 14.7863C15.8904 18.0864 18.6264 20.7617 22.0015 20.7617Z" stroke="#F3F3F3" stroke-width="3.14286" stroke-linecap="round" stroke-linejoin="round"/>
</svg>
