<svg width="40" height="37" viewBox="0 0 40 37" fill="none" xmlns="http://www.w3.org/2000/svg">
<g clip-path="url(#clip0_174_9922)">
<path d="M25.2218 6.66759H5.90621L9.25222 3.32159C9.93663 2.63717 9.93663 1.54719 9.25222 0.888125C8.56781 0.229062 7.47782 0.203714 6.81876 0.888125L0.506971 7.19991C0.17744 7.52944 0 7.96037 0 8.41664C0 8.87292 0.17744 9.30384 0.506971 9.63337L6.76806 15.8945C7.09759 16.224 7.55387 16.4014 7.98479 16.4014C8.41572 16.4014 8.87199 16.224 9.20152 15.8945C9.88593 15.2101 9.88593 14.1201 9.20152 13.461L5.85551 10.115H25.2218C31.4575 10.115 36.5273 15.1847 36.5273 21.4205C36.5273 27.6562 31.4575 32.7259 25.2218 32.7259H17.5158C16.5779 32.7259 15.7921 33.5117 15.7921 34.4496C15.7921 35.3875 16.5779 36.1733 17.5158 36.1733H25.2218C33.3587 36.1733 39.9747 29.5573 39.9747 21.4205C39.9747 13.2836 33.3587 6.66759 25.2218 6.66759Z" fill="white"/>
</g>
<defs>
<clipPath id="clip0_174_9922">
<rect width="40" height="35.8175" fill="white" transform="translate(0 0.382812)"/>
</clipPath>
</defs>
</svg>
