<svg width="40" height="36" viewBox="0 0 40 36" fill="none" xmlns="http://www.w3.org/2000/svg">
<g id="Layer_1" clip-path="url(#clip0_23_96)">
<path id="Undo" d="M25.2218 6.37578H5.90621L9.25222 3.02978C9.93663 2.34537 9.93663 1.25538 9.25222 0.596316C8.56781 -0.0627467 7.47782 -0.0880953 6.81876 0.596316L0.506971 6.9081C0.17744 7.23764 0 7.66856 0 8.12483C0 8.58111 0.17744 9.01203 0.506971 9.34157L6.76806 15.6027C7.09759 15.9322 7.55387 16.1096 7.98479 16.1096C8.41572 16.1096 8.87199 15.9322 9.20152 15.6027C9.88593 14.9182 9.88593 13.8283 9.20152 13.1692L5.85551 9.82319H25.2218C31.4575 9.82319 36.5273 14.8929 36.5273 21.1286C36.5273 27.3644 31.4575 32.4341 25.2218 32.4341H17.5158C16.5779 32.4341 15.7921 33.2199 15.7921 34.1578C15.7921 35.0957 16.5779 35.8815 17.5158 35.8815H25.2218C33.3587 35.8815 39.9747 29.2655 39.9747 21.1286C39.9747 12.9918 33.3587 6.37578 25.2218 6.37578Z" fill="black"/>
</g>
<defs>
<clipPath id="clip0_23_96">
<rect width="40" height="35.8175" fill="white" transform="translate(0 0.0912476)"/>
</clipPath>
</defs>
</svg>
