<svg width="194" height="37" viewBox="0 0 194 37" fill="none" xmlns="http://www.w3.org/2000/svg">
<g id="Layer_1" clip-path="url(#clip0_72_76)">
<g id="Group">
<path id="Vector" d="M43.3489 4.34689C42.7944 3.01755 41.9964 2.04132 40.9651 1.413C39.9339 0.779482 38.799 0.395219 37.5501 0.260208C36.3063 0.114812 35.0004 0.30175 33.6427 0.800253C32.285 1.30395 31.0153 2.09325 29.8338 3.15256C27.9734 4.86098 26.0404 7.7066 24.0401 11.7154C23.4079 12.972 22.7757 14.3221 22.1486 15.7605C21.5164 17.2041 20.879 18.7412 20.2364 20.3769C19.5938 22.0126 19.0808 23.3264 18.7128 24.3026C18.3397 25.284 17.8422 26.6082 17.2307 28.2906C16.6141 29.9679 16.8006 29.4538 16.7436 29.62L8.28112 4.1288C8.20339 3.82762 8.16193 3.59395 8.16193 3.43297C8.16193 2.9864 8.36922 2.60213 8.77861 2.28538C9.19318 1.96862 9.78913 1.80764 10.5716 1.80764H11.1054V1.07547H0V1.80764C0.865424 1.80764 1.55984 1.93227 2.06769 2.17114C2.57554 2.41519 2.97975 2.78907 3.27514 3.29277C3.39433 3.49009 3.61198 3.9886 3.93846 4.78308H3.94364L9.40565 21.5452C11.6236 28.2439 13.2664 33.286 14.3235 36.6665H15.2719C18.9616 26.1252 22.0398 18.253 24.5065 13.0499C27.3671 21.6128 30.0048 29.4797 32.4093 36.6665H33.3525C33.8966 35.3579 34.8501 33.2341 36.2079 30.3158C37.5708 27.3923 38.7368 24.8478 39.711 22.6773C40.6853 20.5119 41.6129 18.1128 42.5042 15.4853C43.3904 12.8526 43.893 10.6872 44.0071 8.97882C44.1211 7.21848 43.8982 5.66585 43.3386 4.3417L43.3489 4.34689ZM42.8566 8.3505C42.8255 9.64349 42.6338 11.0507 42.2762 12.593C41.9186 14.13 41.3538 15.8852 40.5816 17.8532C39.8043 19.8213 39.1669 21.3895 38.6694 22.5526C38.1667 23.7158 37.379 25.4398 36.3063 27.735C35.2336 30.0302 35.2751 30.3573 35.073 30.8039L27.4241 7.81045C28.1651 6.32533 28.5123 5.94107 29.8131 4.5546C31.119 3.17334 32.5285 2.21787 34.0521 1.68302C34.9123 1.39742 35.7674 1.25202 36.6276 1.24164C37.4879 1.22606 38.2963 1.36107 39.0529 1.65706C39.8147 1.95304 40.4884 2.37885 41.0739 2.93966C41.6595 3.50048 42.1104 4.24823 42.4265 5.18293C42.7426 6.11762 42.8825 7.17174 42.8566 8.3505Z" fill="white"/>
<path id="Vector_2" d="M55.8484 1.09143H51.4435H47.8264V1.76129H48.697C49.2774 1.76129 49.8319 1.90669 50.3656 2.19748C50.5988 2.33249 50.775 2.48308 50.9098 2.65444L40.0324 34.1691C39.6696 35.2181 38.7006 35.9502 37.5968 35.9554C37.5864 35.9554 37.576 35.9554 37.5657 35.9554H36.6795V36.6253H47.2045V35.9554H46.3339C45.7535 35.9554 45.199 35.81 44.6652 35.5192C44.6652 35.5192 44.6652 35.5192 44.6601 35.5192C44.3232 35.3219 44.1833 34.9013 44.3129 34.5326L55.3302 2.58174C55.7914 2.0417 56.5013 1.76649 57.46 1.76649H58.3462V1.09662H55.8432L55.8484 1.09143Z" fill="white"/>
<path id="Vector_3" d="M20.1846 2.44156C20.4696 2.61292 20.6976 2.82582 20.8945 3.07507C21.2521 3.54242 21.5786 4.07727 21.874 4.68482L22.4388 6.53343L23.4494 9.49848C24.1075 8.20549 25.7658 6.68922 26.6209 5.31833L26.398 4.5602C26.2996 4.15516 26.2529 3.82802 26.2529 3.56838C26.2529 3.02834 26.4447 2.59734 26.8281 2.28059C27.2116 1.96383 27.8179 1.80285 28.6419 1.80285H29.44V1.07068H17.7542V1.80285C18.3605 1.80285 18.801 1.8444 19.0808 1.92229C19.4487 2.02614 19.8167 2.1975 20.1846 2.43637V2.44156Z" fill="white"/>
</g>
<path id="Vector_4" d="M80.671 18.0457C80.614 15.9946 80.3601 14.1044 79.8937 12.3545C79.4376 10.6045 78.738 8.94801 77.7949 7.3798C76.8621 5.81159 75.5614 4.48744 73.9031 3.39177C72.9444 2.75826 71.8924 2.23379 70.7367 1.81837C69.892 1.5068 69.0992 1.40295 68.0835 1.27313C67.2595 1.16408 66.5029 1.1537 65.8655 1.14331H60.2221V1.75086H61.1756C61.2741 1.75086 61.3622 1.76125 61.4555 1.76644C61.8908 1.82356 62.5852 2.03646 62.2535 2.77383C62.1965 2.90365 62.1343 3.03347 62.0825 3.16329C62.0773 3.17887 62.067 3.19445 62.0618 3.21002C61.9892 3.35542 61.9167 3.5112 61.8493 3.67737C61.8441 3.69295 61.8338 3.71372 61.8286 3.7293C61.6835 4.07202 61.5487 4.45628 61.4192 4.86132C60.9735 6.13873 60.1599 8.47547 58.9784 11.8715C58.3202 13.7669 57.5429 15.9946 56.6568 18.5546C56.5117 19.0064 55.8432 20.9588 54.6461 24.3964C53.5837 27.4498 52.7442 29.8488 52.1224 31.604C52.0446 31.8273 51.9721 32.0454 51.8995 32.2427L51.3709 33.6603L50.7128 35.4155L50.2568 36.6409H58.3462C62.2121 36.7292 65.1089 36.5838 67.047 36.2151C69.493 35.7893 71.6281 34.9845 73.4418 33.8057C75.2556 32.6269 76.6911 31.2093 77.7482 29.558C78.8002 27.9119 79.562 26.1204 80.0388 24.1835C80.5155 22.2518 80.7228 20.2007 80.6658 18.0405L80.671 18.0457ZM76.3698 24.1524C76.0329 25.8556 75.4992 27.4757 74.7478 29.0128C73.9963 30.5498 72.934 31.8584 71.5504 32.9385C70.1615 34.0186 68.5188 34.8027 66.6169 35.2856C65.3421 35.6024 64.5026 35.7737 61.7975 35.7945H57.9471C56.8796 35.7945 56.2992 35.4518 56.1956 34.7715C56.0971 34.0913 56.3199 33.1254 56.8692 31.874L66.1661 6.27375L67.0211 3.92662C67.0522 3.8695 67.0781 3.82277 67.1092 3.77603C67.1092 3.77603 68.1457 2.60767 69.7573 3.57871C69.7573 3.57871 75.9967 7.66021 76.7118 15.2364C76.7118 15.2364 76.7118 15.2364 76.7118 15.2209C76.8258 16.3165 76.8724 17.4433 76.8724 18.6013C76.8724 20.5953 76.7066 22.444 76.375 24.1524H76.3698Z" fill="white"/>
<g id="Group_2">
<path id="Vector_5" d="M96.7098 1.36137V2.1974C96.7098 2.17143 96.5181 2.17143 96.1398 2.1974C95.9325 2.1974 95.7459 2.22336 95.5697 2.27529C95.3054 2.30125 95.0722 2.36876 94.8649 2.47261C94.3053 2.68551 93.8648 3.0542 93.5435 3.58905C93.16 4.22776 92.9734 5.06379 92.9734 6.09714L93.0149 32.2945C93.0149 32.8501 93.1341 33.3019 93.3673 33.6498C93.6886 34.1535 94.1913 34.408 94.8649 34.408C95.8029 34.4339 97.0829 34.4339 98.6946 34.408H103.581C104.696 34.408 105.623 34.2106 106.354 33.8108C106.939 33.4681 107.395 33.0163 107.722 32.4555C107.929 32.0556 108.074 31.6039 108.162 31.1002C108.193 30.9704 108.204 30.8198 108.204 30.664V30.503H109.038L108.815 36.7135H84.3296V35.9554C84.5369 35.9814 84.8115 35.9554 85.1639 35.8775C85.5733 35.7996 85.9568 35.6542 86.3092 35.4413C87.3352 34.9117 87.8483 34.0341 87.8483 32.8138L87.9364 5.94136L87.8949 5.06379C87.8379 4.56009 87.7032 4.1239 87.5011 3.75003C86.9155 2.69071 85.7961 2.17143 84.1534 2.1974V1.31982L96.7046 1.36137H96.7098Z" fill="white"/>
<path id="Vector_6" d="M135.001 1.3198L134.721 8.32481H133.918V8.12749C133.918 7.96651 133.902 7.79515 133.876 7.60821C133.794 7.05259 133.664 6.53331 133.472 6.05558C133.203 5.39091 132.83 4.87683 132.348 4.50295C131.757 4.02522 131.021 3.78635 130.135 3.78635L118.677 3.74481V15.9685L122.74 16.0101C124.025 16.0101 125.191 15.9945 126.238 15.9685C127.497 15.9685 128.518 15.953 129.295 15.927C130.555 15.8751 131.441 15.3454 131.949 14.3328C132.109 13.9901 132.229 13.6162 132.311 13.2164L132.353 12.5777H133.115V22.2518H132.353V22.1323C132.353 21.9973 132.337 21.8675 132.311 21.7325C132.26 21.3067 132.151 20.9224 131.99 20.5797C131.482 19.4633 130.57 18.9076 129.254 18.9076L118.397 18.9492L118.558 25.9178L118.677 34.3561C118.677 34.382 119.133 34.3976 120.045 34.3976L131.223 34.3561C132.026 34.3561 132.71 34.1587 133.275 33.7589C133.731 33.4681 134.094 33.0423 134.358 32.4867C134.545 32.0868 134.68 31.6662 134.763 31.2144L134.804 30.6173L135.566 30.7367L135.447 36.7084H110.479V35.9502C110.479 36.0022 110.655 36.0022 111.002 35.9502L111.526 35.8308C111.769 35.7789 111.982 35.7114 112.168 35.6335C113.293 35.1038 113.858 34.2159 113.858 32.9644V4.94433C113.858 4.33159 113.645 3.75 113.215 3.19438C112.598 2.42585 111.676 2.04159 110.443 2.04159V1.28345L135.006 1.32499L135.001 1.3198Z" fill="white"/>
<path id="Vector_7" d="M144.852 1.31977C145.889 3.04376 147.298 5.3026 149.086 8.08591L154.346 16.1658L163.415 29.7812C163.389 28.4518 163.379 26.598 163.379 24.2094L163.239 5.25586C163.213 3.90056 162.71 2.97106 161.72 2.46736C161.554 2.38947 161.378 2.32197 161.192 2.27004L160.73 2.19215C160.425 2.14022 160.269 2.12464 160.269 2.15061V1.31458H168.986V2.15061H168.706C168.566 2.15061 168.426 2.16618 168.281 2.19215C167.903 2.27004 167.576 2.41544 167.291 2.62834C166.42 3.26705 165.985 4.41983 165.985 6.0919L165.949 9.27504V29.7812L166.021 36.7083H162.808L144.033 8.00282V31.2923C144.033 32.4347 144.21 33.3745 144.562 34.1171C144.842 34.6987 145.231 35.1505 145.728 35.4724C146.06 35.7113 146.433 35.8567 146.858 35.9086C147.21 35.9605 147.386 35.9761 147.386 35.9501V36.7083H138.354V35.9917C138.354 36.0177 138.504 36.0073 138.815 35.9501C139.193 35.8982 139.546 35.7788 139.872 35.5919C140.297 35.327 140.634 34.9428 140.898 34.4391C141.204 33.8263 141.359 33.0474 141.359 32.0919V21.1041C141.359 20.9431 141.37 20.7977 141.396 20.6679V8.56364C141.396 7.15641 141.23 5.96208 140.903 4.98065C140.67 4.21212 140.328 3.57342 139.877 3.06972C139.546 2.727 139.193 2.47256 138.82 2.31158C138.489 2.15061 138.328 2.09868 138.328 2.15061V1.31458H144.857L144.852 1.31977Z" fill="white"/>
<path id="Vector_8" d="M183.589 1.1952C184.931 1.1952 186.149 1.28348 187.248 1.46522C188.134 1.59504 188.922 1.78717 189.621 2.04681L190.383 2.35318L190.906 2.6232C191.15 2.77899 191.269 2.86726 191.269 2.89323V10.3448L190.424 10.2669C190.45 10.2929 190.45 10.215 190.424 10.0332C190.398 9.82553 190.341 9.58147 190.264 9.30107C190.051 8.52735 189.74 7.78479 189.341 7.06299C188.751 6.11272 188.041 5.36497 187.211 4.82492C186.139 4.1291 184.905 3.78118 183.511 3.78118C182.599 3.78118 181.687 3.88504 180.775 4.08756C179.728 4.29526 178.806 4.61721 178.003 5.0534C175.992 6.13349 174.961 7.70689 174.909 9.76322C174.857 11.7209 175.94 13.2372 178.163 14.3173C178.967 14.7275 180.107 15.1533 181.578 15.5895L183.47 16.1711C184.273 16.4047 184.931 16.6072 185.439 16.789C187.849 17.5887 189.808 18.7207 191.311 20.185C193.104 21.935 194.005 23.9965 194.005 26.3644C193.953 27.9586 193.508 29.4385 192.679 30.8042C191.927 32.0401 190.88 33.1202 189.543 34.0497C186.973 35.7996 184.061 36.7135 180.822 36.7914C179.293 36.7914 177.78 36.6356 176.277 36.3293C175.07 36.0956 173.904 35.7633 172.779 35.3271C172.323 35.1713 171.883 35.0051 171.452 34.8234L170.489 34.3612C169.955 34.0808 169.685 33.925 169.685 33.8991V26.6033H170.608C170.608 27.8391 170.903 28.9452 171.494 29.9214C172.028 30.799 172.769 31.5416 173.707 32.1595C175.396 33.2396 177.298 33.7796 179.417 33.7796C180.381 33.7796 181.361 33.6758 182.351 33.4681C183.532 33.2344 184.574 32.8761 185.486 32.388C186.584 31.822 187.429 31.1002 188.02 30.2278C188.714 29.2516 189.067 28.078 189.067 26.7123C189.067 25.3466 188.585 24.1783 187.621 23.1968C186.818 22.3712 185.61 21.613 184.004 20.9172C183.361 20.6368 182.594 20.3356 181.713 20.0293L179.262 19.2555C178.241 18.9232 177.427 18.6376 176.811 18.4039C175.951 18.0976 175.189 17.786 174.52 17.4796C171.598 16.1399 170.136 13.8136 170.136 10.4902C170.219 8.76621 170.737 7.26032 171.706 5.97252C172.535 4.8405 173.691 3.89023 175.163 3.11651C176.422 2.44665 177.858 1.94815 179.464 1.61062C180.858 1.33021 182.237 1.18481 183.605 1.18481L183.589 1.1952Z" fill="white"/>
</g>
</g>
<defs>
<clipPath id="clip0_72_76">
<rect width="194" height="36.5828" fill="white" transform="translate(0 0.208618)"/>
</clipPath>
</defs>
</svg>
