<svg width="42" height="45" viewBox="0 0 42 45" fill="none" xmlns="http://www.w3.org/2000/svg">
<g id="Layer_1" clip-path="url(#clip0_72_75)">
<path id="Home " d="M3.33053 41.7754H14.2063V27.1497C14.2063 26.4875 14.4421 25.9405 14.8842 25.4798C15.3263 25.048 15.9158 24.8176 16.5937 24.8176H25.4358C26.1137 24.8176 26.6737 25.048 27.1453 25.4798C27.5874 25.9117 27.8232 26.4875 27.8232 27.1497V41.7754H38.6989V16.7562C38.6989 16.4683 38.64 16.1804 38.4926 15.9501C38.3747 15.7198 38.1684 15.4894 37.9621 15.3167L22.0758 3.62763C21.7811 3.36851 21.4274 3.25335 20.9853 3.25335C20.5432 3.25335 20.2189 3.36851 19.8947 3.62763L4.06737 15.3167C3.83158 15.4894 3.65474 15.7198 3.53684 15.9501C3.41895 16.1804 3.33053 16.4683 3.33053 16.7562V41.7754ZM0.353683 41.7754V16.7562C0.353683 16.0077 0.530526 15.3167 0.854736 14.6545C1.17895 13.9923 1.65053 13.4453 2.24 13.0134L18.1558 1.29557C18.9811 0.662175 19.9242 0.374268 21.0147 0.374268C22.1053 0.374268 23.0484 0.690966 23.8737 1.29557L39.7305 13.0422C40.32 13.4741 40.7916 14.0211 41.1158 14.6833C41.44 15.3455 41.6168 16.0365 41.6168 16.785V41.8042C41.6168 42.5816 41.3221 43.2438 40.7326 43.8196C40.1432 44.3954 39.4653 44.6833 38.6695 44.6833H27.2337C26.5558 44.6833 25.9958 44.453 25.5242 44.0211C25.0821 43.5892 24.8463 43.0134 24.8463 42.3512V27.7255H17.1242V42.3512C17.1242 43.0134 16.8884 43.5605 16.4463 44.0211C16.0042 44.453 15.4147 44.6833 14.7368 44.6833H3.33053C2.53474 44.6833 1.85684 44.3954 1.26737 43.8196C0.677894 43.2438 0.383157 42.5816 0.383157 41.8042L0.353683 41.7754Z" fill="white" stroke="white" stroke-width="0.25" stroke-miterlimit="10"/>
</g>
<defs>
<clipPath id="clip0_72_75">
<rect width="42" height="45" fill="white"/>
</clipPath>
</defs>
</svg>
