<svg width="42" height="42" viewBox="0 0 42 42" fill="none" xmlns="http://www.w3.org/2000/svg">
<g clip-path="url(#clip0_174_10213)">
<path d="M41.4601 38.8174L34.6116 31.969C40.9486 24.2965 40.6076 12.9013 33.4181 5.7403C25.774 -1.90381 13.3559 -1.90381 5.71177 5.71189C-1.90392 13.356 -1.90392 25.7741 5.71177 33.3898C9.51962 37.1977 14.5494 39.1016 19.5507 39.1016C23.9838 39.1016 28.3315 37.5387 31.9405 34.5549L38.7889 41.4034C39.1583 41.7728 39.6414 41.9433 40.0961 41.9433C40.5507 41.9433 41.0622 41.7728 41.4032 41.4034C42.1421 40.6645 42.1421 39.4994 41.4032 38.7606L41.4601 38.8174ZM8.35453 30.7755C2.15968 24.609 2.15968 14.5211 8.35453 8.35465C14.5494 2.18821 24.6089 2.18821 30.7754 8.35465C36.9702 14.5495 36.9702 24.609 30.7754 30.7755C24.6089 36.9703 14.521 36.9703 8.35453 30.7755Z" fill="black"/>
</g>
<defs>
<clipPath id="clip0_174_10213">
<rect width="42" height="42" fill="white"/>
</clipPath>
</defs>
</svg>
