<svg width="42" height="43" viewBox="0 0 42 43" fill="none" xmlns="http://www.w3.org/2000/svg">
<g id="Layer_1" clip-path="url(#clip0_72_88)">
<path id="Search" d="M41.4601 39.3173L34.6116 32.4689C40.9486 24.7963 40.6076 13.4012 33.4181 6.24018C25.774 -1.40393 13.3559 -1.40393 5.71177 6.21177C-1.90392 13.8559 -1.90392 26.274 5.71177 33.8897C9.51962 37.6976 14.5494 39.6015 19.5507 39.6015C23.9838 39.6015 28.3315 38.0386 31.9405 35.0548L38.7889 41.9032C39.1583 42.2727 39.6414 42.4432 40.0961 42.4432C40.5507 42.4432 41.0622 42.2727 41.4032 41.9032C42.1421 41.1644 42.1421 39.9993 41.4032 39.2605L41.4601 39.3173ZM8.35453 31.2754C2.15968 25.1089 2.15968 15.021 8.35453 8.85453C14.5494 2.68809 24.6089 2.68809 30.7754 8.85453C36.9702 15.0494 36.9702 25.1089 30.7754 31.2754C24.6089 37.4702 14.521 37.4702 8.35453 31.2754Z" fill="white"/>
</g>
<defs>
<clipPath id="clip0_72_88">
<rect width="42" height="42" fill="white" transform="translate(0 0.5)"/>
</clipPath>
</defs>
</svg>
